<?xml version="1.0" encoding="UTF-8" standalone="no"?><!DOCTYPE svg PUBLIC "-//W3C//DTD SVG 1.1//EN" "http://www.w3.org/Graphics/SVG/1.1/DTD/svg11.dtd"><!-- Generated by graphviz version 2.40.1 (20161225.0304)
 --><!-- Title: finite_state_machine Pages: 1 --><svg xmlns="http://www.w3.org/2000/svg" xmlns:xlink="http://www.w3.org/1999/xlink" width="189pt" height="365pt" viewBox="0.00 0.00 188.58 364.85">
<g id="graph0" class="graph" transform="scale(1 1) rotate(0) translate(4 360.8482)">
<title>finite_state_machine</title>
<polygon fill="#ffffff" stroke="transparent" points="-4,4 -4,-360.8482 184.5769,-360.8482 184.5769,4 -4,4"/>
<!-- Stopped -->
<g id="node1" class="node">
<title>Stopped</title>
<ellipse fill="none" stroke="#000000" cx="46.6891" cy="-180.5776" rx="42.8627" ry="42.8627"/>
<ellipse fill="none" stroke="#000000" cx="46.6891" cy="-180.5776" rx="46.8789" ry="46.8789"/>
<text text-anchor="middle" x="46.6891" y="-176.3776" font-family="Times,serif" font-size="14.00" fill="#000000">Stopped</text>
</g>
<!-- Stopped&#45;&gt;Stopped -->
<g id="edge2" class="edge">
<title>Stopped-&gt;Stopped</title>
<path fill="none" stroke="#00ff00" d="M91.4345,-193.9161C102.8261,-193.0394 111.3782,-188.5932 111.3782,-180.5776 111.3782,-175.1921 107.5176,-171.4179 101.5291,-169.255"/>
<polygon fill="#00ff00" stroke="#00ff00" points="101.9264,-165.7653 91.4345,-167.2391 100.5554,-172.6298 101.9264,-165.7653"/>
<text text-anchor="middle" x="125.7597" y="-176.3776" font-family="Times,serif" font-size="14.00" fill="#000000">Eject</text>
</g>
<!-- Playing -->
<g id="node2" class="node">
<title>Playing</title>
<ellipse fill="none" stroke="#0000ff" cx="90.6891" cy="-40.5443" rx="40.5886" ry="40.5886"/>
<text text-anchor="middle" x="90.6891" y="-36.3443" font-family="Times,serif" font-size="14.00" fill="#000000">Playing</text>
</g>
<!-- Stopped&#45;&gt;Playing -->
<g id="edge1" class="edge">
<title>Stopped-&gt;Playing</title>
<path fill="none" stroke="#00ff00" d="M20.3526,-141.7552C14.3008,-128.0185 11.3123,-112.6235 17.8013,-99.0885 24.125,-85.8982 35.0299,-74.7393 46.5065,-65.8162"/>
<polygon fill="#00ff00" stroke="#00ff00" points="48.8714,-68.4245 54.9071,-59.7169 44.7587,-62.76 48.8714,-68.4245"/>
<text text-anchor="middle" x="31.133" y="-103.2885" font-family="Times,serif" font-size="14.00" fill="#000000">Play</text>
</g>
<!-- Playing&#45;&gt;Stopped -->
<g id="edge4" class="edge">
<title>Playing-&gt;Stopped</title>
<path fill="none" stroke="#00ff00" d="M73.884,-77.6655C71.015,-84.7013 68.2238,-92.0607 65.9261,-99.0885 63.2637,-107.2317 60.8076,-115.9445 58.6039,-124.5331"/>
<polygon fill="#00ff00" stroke="#00ff00" points="55.1381,-123.969 56.1356,-134.5167 61.9335,-125.649 55.1381,-123.969"/>
<text text-anchor="middle" x="81.0706" y="-103.2885" font-family="Times,serif" font-size="14.00" fill="#000000">Eject</text>
</g>
<!-- Playing&#45;&gt;Stopped -->
<g id="edge7" class="edge">
<title>Playing-&gt;Stopped</title>
<path fill="none" stroke="#00ff00" d="M98.2452,-80.7693C98.9785,-92.3401 98.3473,-104.8192 94.6891,-115.8885 92.2206,-123.3577 88.5196,-130.6676 84.2467,-137.5278"/>
<polygon fill="#00ff00" stroke="#00ff00" points="81.2554,-135.7038 78.5783,-145.9548 87.0637,-139.6107 81.2554,-135.7038"/>
<text text-anchor="middle" x="111.5257" y="-103.2885" font-family="Times,serif" font-size="14.00" fill="#000000">Stop</text>
</g>
<!-- Paused -->
<g id="node3" class="node">
<title>Paused</title>
<ellipse fill="none" stroke="#0000ff" cx="98.6891" cy="-318.4575" rx="38.2818" ry="38.2818"/>
<text text-anchor="middle" x="98.6891" y="-314.2575" font-family="Times,serif" font-size="14.00" fill="#000000">Paused</text>
</g>
<!-- Paused&#45;&gt;Stopped -->
<g id="edge5" class="edge">
<title>Paused-&gt;Stopped</title>
<path fill="none" stroke="#00ff00" d="M69.1351,-293.4218C60.668,-284.484 52.4985,-273.7153 47.9261,-262.0667 44.9122,-254.3886 43.2068,-245.9816 42.3703,-237.5759"/>
<polygon fill="#00ff00" stroke="#00ff00" points="45.8505,-237.1422 41.7512,-227.3725 38.8633,-237.5661 45.8505,-237.1422"/>
<text text-anchor="middle" x="63.0706" y="-249.4667" font-family="Times,serif" font-size="14.00" fill="#000000">Eject</text>
</g>
<!-- Paused&#45;&gt;Stopped -->
<g id="edge6" class="edge">
<title>Paused-&gt;Stopped</title>
<path fill="none" stroke="#00ff00" d="M88.6204,-281.2555C85.1738,-269.615 81.0719,-256.8017 76.6891,-245.2667 75.0182,-240.8692 73.1823,-236.3518 71.2673,-231.8471"/>
<polygon fill="#00ff00" stroke="#00ff00" points="74.4644,-230.4224 67.2527,-222.6608 68.0501,-233.2256 74.4644,-230.4224"/>
<text text-anchor="middle" x="95.5257" y="-249.4667" font-family="Times,serif" font-size="14.00" fill="#000000">Stop</text>
</g>
<!-- Paused&#45;&gt;Playing -->
<g id="edge3" class="edge">
<title>Paused-&gt;Playing</title>
<path fill="none" stroke="#00ff00" d="M121.215,-286.7818C131.8011,-269.9601 143.2678,-248.4303 148.6891,-227.2667 158.9876,-187.0634 159.3907,-173.9864 148.6891,-133.8885 143.6248,-114.9131 133.2555,-96.1054 122.6663,-80.3986"/>
<polygon fill="#00ff00" stroke="#00ff00" points="125.3958,-78.1945 116.7931,-72.0102 119.6616,-82.2094 125.3958,-78.1945"/>
<text text-anchor="middle" x="168.133" y="-176.3776" font-family="Times,serif" font-size="14.00" fill="#000000">Play</text>
</g>
</g>
</svg>